<?xml version="1.0" encoding="utf-8"?>
<svg xmlns="http://www.w3.org/2000/svg" height="512pt" version="1.1" viewBox="0 0 512 512" width="512pt">
<path d="M 0.00 0.00 L 512.00 0.00 L 512.00 512.00 L 0.00 512.00 L 0.00 0.00 Z" fill="transparent" opacity="1.00" stroke="transparent" stroke-width="0.25"/>
<path d="M 237.64 79.42 C 238.19 77.84 238.87 75.68 241.00 76.09 C 242.52 77.46 242.85 79.62 243.54 81.45 C 249.96 103.24 257.04 124.85 262.40 146.93 C 263.76 151.28 266.80 154.79 269.42 158.42 C 274.10 164.52 278.15 171.06 282.88 177.12 C 287.96 169.80 292.43 162.00 298.10 155.14 C 303.53 179.19 311.52 202.55 319.32 225.91 C 322.19 233.01 323.82 240.51 325.57 247.94 C 325.87 250.36 327.78 251.99 329.20 253.80 C 337.16 263.08 343.74 273.40 350.44 283.58 C 356.47 292.83 361.34 302.79 365.45 313.02 C 372.51 330.16 381.04 346.67 387.83 363.90 C 397.96 373.21 406.45 384.18 416.90 393.17 C 418.80 395.01 421.20 396.19 423.66 397.12 L 423.20 397.39 C 416.49 401.69 410.19 406.63 404.06 411.71 C 406.99 412.96 409.94 414.15 412.89 415.37 C 416.27 416.76 419.53 418.43 422.74 420.19 C 428.34 416.80 434.64 414.63 439.97 410.80 C 438.76 404.23 433.83 398.90 433.34 392.06 C 429.53 396.46 425.34 400.50 421.17 404.55 C 421.63 402.95 421.53 400.70 423.51 400.11 C 424.08 398.88 424.60 397.64 425.21 396.44 C 428.39 394.01 431.35 391.32 433.95 388.27 C 444.76 397.84 455.97 406.98 468.11 414.83 C 474.51 419.69 481.71 423.31 488.32 427.86 C 489.99 428.86 491.15 430.43 491.93 432.20 C 486.62 429.07 481.55 425.35 475.55 423.63 C 467.85 421.46 460.10 419.38 452.72 416.28 C 449.11 414.95 445.70 413.02 441.91 412.23 C 434.79 415.32 428.07 419.29 421.08 422.67 C 421.00 420.30 418.59 419.72 416.88 418.85 C 406.42 414.36 395.66 410.66 384.94 406.87 C 382.35 405.91 379.62 405.23 377.24 403.80 C 375.41 402.13 374.38 399.80 373.05 397.76 C 368.08 389.65 363.11 381.41 356.54 374.49 C 351.59 369.16 343.38 368.79 338.37 363.67 C 334.21 355.45 330.48 347.00 326.08 338.89 C 320.55 329.28 314.23 320.15 307.99 310.99 C 302.15 302.27 297.34 292.93 291.98 283.93 C 289.93 281.11 286.59 279.82 283.68 278.12 C 278.48 275.24 274.27 270.97 269.47 267.52 C 267.75 266.40 266.57 264.72 265.75 262.88 C 260.12 251.13 255.99 238.69 249.69 227.26 C 246.27 221.07 243.43 214.52 239.21 208.82 C 238.82 208.18 238.38 207.59 237.92 207.02 C 237.65 209.09 237.36 211.19 237.26 213.29 C 237.00 210.54 236.73 207.78 236.21 205.07 C 234.92 205.33 234.36 206.69 233.60 207.61 C 229.26 214.21 224.71 220.69 220.14 227.12 C 218.93 229.48 216.06 228.41 214.10 227.86 C 207.31 225.42 201.02 221.83 194.51 218.76 C 194.32 219.66 193.95 221.48 193.76 222.38 C 193.51 221.19 193.25 220.00 193.00 218.82 C 193.10 218.14 193.31 216.77 193.42 216.09 C 199.72 218.93 205.75 222.36 212.16 224.97 C 212.98 225.31 213.80 225.65 214.63 225.99 C 214.74 216.98 213.75 207.98 214.55 198.98 C 214.86 190.22 215.64 181.49 216.24 172.75 C 214.12 174.74 212.60 177.25 212.03 180.11 C 211.84 175.75 214.77 172.33 216.75 168.75 C 223.31 157.36 228.85 145.41 233.98 133.32 C 227.10 139.35 220.43 145.60 213.43 151.49 C 207.75 158.26 202.22 165.32 198.42 173.36 C 196.32 177.71 195.59 182.54 193.72 186.98 C 193.15 186.98 192.01 186.97 191.44 186.97 L 190.59 185.97 C 190.03 174.58 191.85 163.23 191.44 151.85 C 189.15 156.12 188.31 160.94 186.60 165.44 C 183.48 173.93 181.20 182.70 177.98 191.15 C 176.40 195.41 173.94 199.40 173.34 203.97 C 172.36 211.17 171.06 218.32 170.17 225.54 C 168.42 234.62 167.27 243.80 166.02 252.96 C 165.74 256.07 164.34 259.65 166.61 262.36 C 165.64 266.72 164.21 271.19 160.86 274.34 L 160.54 273.83 C 162.65 266.01 163.69 257.96 164.91 249.96 C 167.14 235.35 169.64 220.78 171.50 206.12 C 171.38 200.11 174.61 194.93 176.50 189.43 C 181.08 177.44 184.66 165.10 187.83 152.67 C 188.86 149.92 188.83 146.23 191.70 144.62 C 195.35 150.85 196.94 158.33 201.76 163.81 C 207.53 156.06 214.92 148.97 217.55 139.38 C 220.64 128.92 224.93 118.88 228.47 108.58 C 231.91 98.98 234.58 89.13 237.64 79.42 Z" fill="#0d275b" opacity="1.00" stroke="#0d275b" stroke-width="0.25"/>
<path d="M 241.50 82.88 C 248.07 102.41 254.16 122.13 258.67 142.24 C 252.58 133.85 248.93 124.06 243.82 115.10 C 242.95 113.57 242.14 111.93 242.25 110.11 C 242.09 101.03 240.94 91.96 241.50 82.88 Z" fill="#f4f9fa" opacity="1.00" stroke="#f4f9fa" stroke-width="0.25"/>
<path d="M 234.69 95.76 C 236.08 91.46 237.53 87.16 239.56 83.12 C 240.64 97.04 239.96 111.01 240.75 124.93 C 233.84 131.67 225.84 137.18 219.06 144.04 C 219.93 137.51 221.91 131.21 224.22 125.07 C 227.67 115.29 231.51 105.64 234.69 95.76 Z" fill="#94ccec" opacity="1.00" stroke="#94ccec" stroke-width="0.25"/>
<path d="M 242.22 114.71 C 245.64 120.87 247.59 127.73 251.19 133.80 C 254.21 138.84 256.92 144.07 260.10 149.02 C 271.25 164.65 283.45 179.65 292.61 196.60 C 294.64 199.79 295.73 203.40 297.04 206.91 C 300.22 210.70 304.18 213.80 307.28 217.69 C 311.00 222.30 315.71 226.13 318.87 231.17 C 321.37 237.46 322.44 244.22 324.33 250.68 C 333.26 260.37 340.10 271.73 347.51 282.58 C 355.84 294.73 361.46 308.42 367.15 321.94 C 372.21 334.25 378.37 346.06 383.58 358.31 C 384.90 361.20 385.60 364.64 388.26 366.68 C 393.79 371.17 398.15 376.84 403.11 381.92 C 408.16 387.14 413.16 392.44 418.57 397.31 C 414.24 402.09 408.79 405.67 403.98 409.94 C 402.63 411.56 400.57 410.64 398.94 410.10 C 392.60 407.80 386.22 405.63 379.92 403.23 C 377.82 402.70 376.97 400.60 375.89 398.97 C 370.22 389.57 364.50 380.02 356.59 372.30 C 352.23 368.21 346.13 367.02 341.15 363.92 C 339.56 362.97 339.21 360.99 338.45 359.45 C 332.72 345.35 325.06 332.13 316.40 319.64 C 309.14 309.44 302.44 298.84 296.39 287.88 C 294.74 284.93 293.54 281.35 290.31 279.74 C 283.60 275.98 277.64 271.12 271.38 266.69 C 269.85 265.70 269.20 263.94 268.48 262.37 C 263.79 251.66 258.82 241.07 253.63 230.60 C 251.72 221.17 251.81 211.43 250.37 201.91 C 247.38 179.71 246.94 157.28 244.34 135.05 C 243.68 128.27 242.34 121.53 242.22 114.71 Z" fill="#feffff" opacity="1.00" stroke="#feffff" stroke-width="0.25"/>
<path d="M 230.46 144.66 C 233.35 137.97 235.73 130.72 241.36 125.73 C 243.07 158.70 246.88 191.50 250.57 224.28 C 247.26 216.07 240.91 209.65 237.42 201.56 C 236.32 200.29 235.34 201.96 234.79 202.82 C 229.23 211.03 223.50 219.13 217.69 227.16 C 214.46 209.56 217.25 191.67 217.36 173.96 C 217.37 171.59 218.53 169.47 219.45 167.37 C 223.06 159.77 226.94 152.30 230.46 144.66 Z" fill="#dff2fc" opacity="1.00" stroke="#dff2fc" stroke-width="0.25"/>
<path d="M 213.43 151.49 C 220.43 145.60 227.10 139.35 233.98 133.32 C 228.85 145.41 223.31 157.36 216.75 168.75 C 214.77 172.33 211.84 175.75 212.03 180.11 C 212.37 195.05 213.78 209.96 213.92 224.91 C 213.48 224.93 212.60 224.96 212.16 224.97 C 205.75 222.36 199.72 218.93 193.42 216.09 C 193.31 216.77 193.10 218.14 193.00 218.82 C 192.77 220.02 192.54 221.23 192.30 222.44 C 191.13 218.64 189.27 215.07 186.18 212.48 C 188.86 204.03 190.48 195.25 193.72 186.98 C 195.59 182.54 196.32 177.71 198.42 173.36 C 202.22 165.32 207.75 158.26 213.43 151.49 Z" fill="#99d0ef" opacity="1.00" stroke="#99d0ef" stroke-width="0.25"/>
<path d="M 186.60 165.44 C 188.31 160.94 189.15 156.12 191.44 151.85 C 191.85 163.23 190.03 174.58 190.59 185.97 L 191.44 186.97 C 191.33 191.29 189.31 195.24 188.27 199.37 C 185.00 210.82 181.37 222.16 177.35 233.36 C 176.23 232.38 175.12 231.40 174.03 230.40 C 173.11 228.51 171.69 226.95 170.17 225.54 C 171.06 218.32 172.36 211.17 173.34 203.97 C 173.94 199.40 176.40 195.41 177.98 191.15 C 181.20 182.70 183.48 173.93 186.60 165.44 Z" fill="#6cb6e1" opacity="1.00" stroke="#6cb6e1" stroke-width="0.25"/>
<path d="M 193.43 153.87 C 195.15 158.40 198.81 162.18 199.81 166.90 C 196.75 172.27 193.80 177.80 192.68 183.97 C 192.75 173.93 192.22 163.87 193.43 153.87 Z" fill="#64b8e3" opacity="1.00" stroke="#64b8e3" stroke-width="0.25"/>
<path d="M 284.38 178.82 C 288.33 171.90 292.97 165.39 297.24 158.67 C 301.98 181.42 310.40 203.16 317.03 225.36 C 311.49 219.75 306.41 213.69 301.01 207.94 C 299.84 206.73 298.88 205.32 298.24 203.77 C 294.54 194.97 289.17 187.04 284.38 178.82 Z" fill="#e5f3f9" opacity="1.00" stroke="#e5f3f9" stroke-width="0.25"/>
<path d="M 212.03 180.11 C 212.60 177.25 214.12 174.74 216.24 172.75 C 215.64 181.49 214.86 190.22 214.55 198.98 C 213.75 207.98 214.74 216.98 214.63 225.99 C 213.80 225.65 212.98 225.31 212.16 224.97 C 212.60 224.96 213.48 224.93 213.92 224.91 C 213.78 209.96 212.37 195.05 212.03 180.11 Z" fill="#427fb2" opacity="1.00" stroke="#427fb2" stroke-width="0.25"/>
<path d="M 191.44 186.97 C 192.01 186.97 193.15 186.98 193.72 186.98 C 190.48 195.25 188.86 204.03 186.18 212.48 C 182.58 222.77 179.34 233.19 175.73 243.47 C 172.08 254.22 167.53 264.61 163.01 275.01 C 167.75 281.56 172.46 288.13 177.50 294.45 C 179.27 283.06 182.31 271.93 184.31 260.58 C 186.87 247.84 189.85 235.20 192.30 222.44 C 192.54 221.23 192.77 220.02 193.00 218.82 C 193.25 220.00 193.51 221.19 193.76 222.38 C 191.25 237.27 188.17 252.07 185.03 266.84 C 183.21 275.12 181.41 283.41 179.71 291.72 C 179.08 294.26 179.53 296.86 180.49 299.26 C 179.82 300.38 179.15 301.50 178.49 302.64 C 172.88 310.94 169.73 320.51 165.57 329.54 C 163.51 335.11 158.59 339.66 158.51 345.87 C 157.90 356.60 156.20 367.27 156.21 378.03 C 162.48 370.71 167.47 362.41 172.37 354.14 C 174.26 350.81 176.44 347.63 179.15 344.92 C 181.71 336.66 184.83 328.60 188.09 320.60 C 191.06 312.83 195.51 305.71 198.51 297.99 C 197.93 289.39 194.72 281.20 192.96 272.80 C 192.61 270.99 192.26 269.19 191.93 267.39 C 198.10 266.69 205.36 267.89 210.34 263.37 C 218.69 255.99 225.27 246.92 232.41 238.42 C 234.46 235.82 236.79 233.21 237.64 229.94 C 238.15 224.40 237.51 218.83 237.26 213.29 C 237.36 211.19 237.65 209.09 237.92 207.02 C 238.38 207.59 238.82 208.18 239.21 208.82 C 238.43 214.23 239.84 219.64 239.70 225.08 C 240.02 237.93 237.09 250.61 233.91 262.99 C 231.48 270.99 229.38 279.15 225.72 286.70 C 222.37 293.59 219.19 300.59 215.04 307.05 C 213.42 309.82 211.00 312.60 211.75 316.06 C 213.30 328.87 213.79 341.75 214.38 354.63 C 214.28 358.89 214.88 363.26 213.68 367.41 C 212.39 360.14 212.81 352.72 212.16 345.38 C 211.79 335.61 211.16 325.82 209.84 316.13 C 209.35 311.37 212.25 307.35 214.31 303.33 C 219.26 294.04 224.85 284.97 228.15 274.91 C 218.03 267.87 205.22 267.88 193.44 268.88 C 195.50 277.37 198.18 285.70 200.22 294.19 C 200.68 296.08 200.84 298.14 199.91 299.93 C 197.59 305.08 194.83 310.03 192.49 315.18 C 189.14 322.41 186.33 329.87 183.31 337.24 C 182.33 340.35 180.13 343.90 181.78 347.13 C 185.12 353.08 189.11 358.64 192.68 364.46 C 199.45 375.05 206.05 385.74 213.31 396.00 C 213.79 396.81 214.26 397.63 214.74 398.46 C 202.55 393.71 191.01 387.15 181.07 378.61 C 173.09 379.50 165.01 379.57 157.00 379.01 C 153.61 378.87 151.73 375.61 149.39 373.63 C 142.89 367.59 137.15 360.82 131.03 354.41 C 123.69 357.04 116.28 359.52 108.66 361.24 C 116.69 370.21 124.76 379.33 134.59 386.40 C 143.16 392.67 152.22 398.20 161.29 403.71 C 164.88 405.95 168.69 408.04 171.50 411.29 C 170.02 410.79 168.56 410.25 167.18 409.51 C 149.75 398.82 131.29 388.92 117.41 373.55 C 113.30 369.58 109.88 365.00 105.85 360.97 C 104.27 370.08 102.97 379.24 101.12 388.31 C 104.71 391.96 108.49 395.43 112.45 398.67 C 114.30 400.27 116.43 401.77 117.32 404.17 C 110.49 401.22 105.11 395.79 99.86 390.67 C 96.41 394.82 94.12 399.72 91.24 404.25 C 85.33 413.68 79.84 423.51 72.25 431.74 C 72.82 429.72 73.44 427.72 73.97 425.69 C 59.97 425.20 45.95 425.50 31.96 424.71 C 28.89 424.39 25.43 425.02 22.80 423.03 C 36.05 422.44 48.88 418.67 62.04 417.22 C 64.98 405.92 66.84 394.39 69.76 383.09 C 70.43 380.91 70.84 378.35 72.85 376.94 C 76.62 374.25 80.92 372.39 84.60 369.57 C 87.36 367.42 89.10 364.33 91.01 361.46 C 94.83 361.69 98.66 361.93 102.49 361.98 C 104.40 352.67 107.44 343.67 109.71 334.46 C 110.98 329.17 114.64 324.97 116.99 320.16 C 126.83 300.89 132.41 279.82 137.39 258.86 C 138.78 254.41 139.37 249.64 141.72 245.55 C 148.12 254.90 153.96 264.61 160.54 273.83 L 160.86 274.34 C 164.21 271.19 165.64 266.72 166.61 262.36 C 171.29 253.14 173.81 243.04 177.35 233.36 C 181.37 222.16 185.00 210.82 188.27 199.37 C 189.31 195.24 191.33 191.29 191.44 186.97 Z" fill="#0d264b" opacity="1.00" stroke="#0d264b" stroke-width="0.25"/>
<path d="M 233.60 207.61 C 234.36 206.69 234.92 205.33 236.21 205.07 C 236.73 207.78 237.00 210.54 237.26 213.29 C 237.51 218.83 238.15 224.40 237.64 229.94 C 236.79 233.21 234.46 235.82 232.41 238.42 C 225.27 246.92 218.69 255.99 210.34 263.37 C 205.36 267.89 198.10 266.69 191.93 267.39 C 192.26 269.19 192.61 270.99 192.96 272.80 C 192.66 272.91 192.06 273.13 191.76 273.24 C 191.40 272.99 190.67 272.50 190.31 272.26 C 188.14 270.89 186.37 269.01 185.03 266.84 C 188.17 252.07 191.25 237.27 193.76 222.38 C 193.95 221.48 194.32 219.66 194.51 218.76 C 201.02 221.83 207.31 225.42 214.10 227.86 C 216.06 228.41 218.93 229.48 220.14 227.12 C 224.71 220.69 229.26 214.21 233.60 207.61 Z" fill="#9bd0ef" opacity="1.00" stroke="#9bd0ef" stroke-width="0.25"/>
<path d="M 239.21 208.82 C 243.43 214.52 246.27 221.07 249.69 227.26 C 255.99 238.69 260.12 251.13 265.75 262.88 C 265.53 263.20 265.09 263.84 264.87 264.16 C 262.77 263.89 260.64 263.11 258.52 263.63 C 254.96 264.41 251.44 266.27 247.71 265.43 C 243.12 264.44 238.28 264.91 233.91 262.99 C 237.09 250.61 240.02 237.93 239.70 225.08 C 239.84 219.64 238.43 214.23 239.21 208.82 Z" fill="#fefefe" opacity="1.00" stroke="#fefefe" stroke-width="0.25"/>
<path d="M 175.73 243.47 C 179.34 233.19 182.58 222.77 186.18 212.48 C 189.27 215.07 191.13 218.64 192.30 222.44 C 189.85 235.20 186.87 247.84 184.31 260.58 C 181.29 258.87 177.42 257.17 176.74 253.34 C 176.28 250.06 176.49 246.71 175.73 243.47 Z" fill="#86c4eb" opacity="1.00" stroke="#86c4eb" stroke-width="0.25"/>
<path d="M 170.17 225.54 C 171.69 226.95 173.11 228.51 174.03 230.40 C 175.12 231.40 176.23 232.38 177.35 233.36 C 173.81 243.04 171.29 253.14 166.61 262.36 C 164.34 259.65 165.74 256.07 166.02 252.96 C 167.27 243.80 168.42 234.62 170.17 225.54 Z" fill="#5baedd" opacity="1.00" stroke="#5baedd" stroke-width="0.25"/>
<path d="M 209.75 266.78 C 220.91 257.39 228.44 244.64 237.89 233.70 C 235.31 246.87 233.28 260.24 228.70 272.91 C 227.05 272.61 225.63 271.66 224.14 270.95 C 219.66 268.65 214.66 267.68 209.75 266.78 Z" fill="#96ceef" opacity="1.00" stroke="#96ceef" stroke-width="0.25"/>
<path d="M 163.01 275.01 C 167.53 264.61 172.08 254.22 175.73 243.47 C 176.49 246.71 176.28 250.06 176.74 253.34 C 177.42 257.17 181.29 258.87 184.31 260.58 C 182.31 271.93 179.27 283.06 177.50 294.45 C 172.46 288.13 167.75 281.56 163.01 275.01 Z" fill="#71bbe4" opacity="1.00" stroke="#71bbe4" stroke-width="0.25"/>
<path d="M 143.16 252.07 C 146.08 255.55 148.12 259.64 150.67 263.38 C 153.47 267.51 156.47 271.52 159.29 275.65 C 158.52 280.75 158.65 285.92 159.14 291.04 C 159.40 297.73 159.52 304.43 159.16 311.12 C 158.20 321.04 158.96 331.12 157.09 340.94 C 154.07 352.06 153.20 363.62 153.20 375.10 C 145.69 368.29 138.84 360.78 132.36 352.98 C 136.74 332.95 140.93 312.88 145.97 293.00 C 147.12 286.09 150.59 279.09 148.20 272.07 C 146.76 265.34 144.39 258.84 143.16 252.07 Z" fill="#e7f6fc" opacity="1.00" stroke="#e7f6fc" stroke-width="0.25"/>
<path d="M 140.71 257.12 C 141.07 255.92 141.56 254.77 142.13 253.66 C 143.52 261.21 146.28 268.46 147.53 276.02 C 146.24 285.67 143.24 295.00 141.19 304.51 C 140.66 303.01 140.13 301.52 139.60 300.03 C 138.04 300.27 136.48 300.51 134.93 300.77 C 133.24 298.36 131.86 295.71 131.25 292.81 C 133.14 280.61 137.38 268.97 140.71 257.12 Z" fill="#91cbee" opacity="1.00" stroke="#91cbee" stroke-width="0.25"/>
<path d="M 225.72 286.70 C 229.38 279.15 231.48 270.99 233.91 262.99 C 238.28 264.91 243.12 264.44 247.71 265.43 C 251.44 266.27 254.96 264.41 258.52 263.63 C 260.64 263.11 262.77 263.89 264.87 264.16 C 265.09 263.84 265.53 263.20 265.75 262.88 C 266.57 264.72 267.75 266.40 269.47 267.52 C 274.27 270.97 278.48 275.24 283.68 278.12 C 286.59 279.82 289.93 281.11 291.98 283.93 C 291.26 288.27 290.26 293.01 292.90 296.92 C 291.32 296.36 289.74 295.82 288.16 295.29 C 287.91 296.57 287.65 297.85 287.40 299.14 C 287.14 298.83 286.61 298.23 286.35 297.93 C 280.45 314.52 274.99 331.28 268.85 347.78 C 263.48 344.10 258.25 340.22 252.97 336.42 C 247.59 349.80 243.15 363.59 236.51 376.43 C 235.49 378.61 234.02 380.68 233.66 383.11 C 232.79 393.30 231.19 403.41 230.39 413.61 C 227.30 415.69 223.97 417.41 220.43 418.59 C 211.01 421.82 201.75 425.56 192.05 427.90 C 188.74 427.68 185.37 427.12 182.12 428.10 C 179.21 428.93 176.16 428.93 173.30 427.89 C 173.72 427.38 174.14 426.89 174.56 426.39 C 173.58 425.47 172.60 424.55 171.62 423.64 C 170.84 423.59 170.05 423.56 169.27 423.53 C 167.14 419.26 165.78 414.21 167.18 409.51 C 168.56 410.25 170.02 410.79 171.50 411.29 C 168.69 408.04 164.88 405.95 161.29 403.71 C 152.22 398.20 143.16 392.67 134.59 386.40 C 124.76 379.33 116.69 370.21 108.66 361.24 C 116.28 359.52 123.69 357.04 131.03 354.41 C 137.15 360.82 142.89 367.59 149.39 373.63 C 151.73 375.61 153.61 378.87 157.00 379.01 C 165.01 379.57 173.09 379.50 181.07 378.61 C 191.01 387.15 202.55 393.71 214.74 398.46 C 214.26 397.63 213.79 396.81 213.31 396.00 C 216.15 396.72 218.80 395.95 220.70 393.65 C 221.55 394.42 222.41 395.19 223.28 395.97 C 224.19 393.20 223.90 390.35 223.08 387.60 C 223.72 383.66 221.36 379.97 222.01 376.03 C 222.57 371.62 222.67 367.15 221.91 362.75 C 221.19 362.65 220.46 362.56 219.75 362.47 C 218.60 360.27 217.43 358.08 216.22 355.91 C 216.12 359.67 215.92 363.43 215.56 367.18 C 215.39 362.98 215.04 358.79 214.38 354.63 C 213.79 341.75 213.30 328.87 211.75 316.06 C 211.00 312.60 213.42 309.82 215.04 307.05 C 219.19 300.59 222.37 293.59 225.72 286.70 Z" fill="#eaf6fd" opacity="1.00" stroke="#eaf6fd" stroke-width="0.25"/>
<path d="M 179.71 291.72 C 181.41 283.41 183.21 275.12 185.03 266.84 C 186.37 269.01 188.14 270.89 190.31 272.26 C 190.67 272.50 191.40 272.99 191.76 273.24 C 192.06 273.13 192.66 272.91 192.96 272.80 C 194.72 281.20 197.93 289.39 198.51 297.99 C 195.51 305.71 191.06 312.83 188.09 320.60 C 187.38 319.02 186.68 317.44 185.98 315.87 C 185.30 316.90 184.63 317.95 183.96 318.99 C 183.06 316.20 180.92 314.13 179.42 311.68 C 178.01 308.90 178.24 305.65 178.49 302.64 C 179.15 301.50 179.82 300.38 180.49 299.26 C 179.53 296.86 179.08 294.26 179.71 291.72 Z" fill="#93ccec" opacity="1.00" stroke="#93ccec" stroke-width="0.25"/>
<path d="M 193.44 268.88 C 205.22 267.88 218.03 267.87 228.15 274.91 C 224.85 284.97 219.26 294.04 214.31 303.33 C 212.25 307.35 209.35 311.37 209.84 316.13 C 209.59 315.24 209.34 314.35 209.08 313.48 C 204.35 316.91 197.78 317.95 192.49 315.18 C 194.83 310.03 197.59 305.08 199.91 299.93 C 200.84 298.14 200.68 296.08 200.22 294.19 C 198.18 285.70 195.50 277.37 193.44 268.88 Z" fill="#a0d5f0" opacity="1.00" stroke="#a0d5f0" stroke-width="0.25"/>
<path d="M 160.92 275.85 C 165.96 281.60 170.02 288.13 174.97 293.97 C 176.04 295.57 177.82 297.02 177.84 299.08 C 177.31 301.48 175.80 303.49 174.55 305.56 C 170.48 311.75 167.62 318.65 165.12 325.60 C 163.52 321.71 162.04 317.74 161.30 313.59 C 161.16 308.70 161.49 303.81 161.38 298.93 C 161.55 291.22 160.16 283.55 160.92 275.85 Z" fill="#71bae1" opacity="1.00" stroke="#71bae1" stroke-width="0.25"/>
<path d="M 130.59 296.47 C 130.75 295.23 131.01 294.02 131.25 292.81 C 131.86 295.71 133.24 298.36 134.93 300.77 C 136.48 300.51 138.04 300.27 139.60 300.03 C 140.13 301.52 140.66 303.01 141.19 304.51 C 140.21 308.42 139.11 312.29 138.26 316.24 C 137.53 315.20 136.80 314.16 136.08 313.13 C 135.39 313.72 134.70 314.32 134.02 314.93 C 132.19 312.41 130.44 309.80 129.26 306.91 C 129.67 303.42 130.18 299.95 130.59 296.47 Z" fill="#76bbe5" opacity="1.00" stroke="#76bbe5" stroke-width="0.25"/>
<path d="M 127.49 301.61 C 127.34 299.37 127.63 296.39 130.59 296.47 C 130.18 299.95 129.67 303.42 129.26 306.91 C 127.19 322.49 126.53 338.31 123.07 353.68 C 122.30 350.77 122.43 347.74 122.81 344.79 C 124.03 334.51 124.53 324.14 126.31 313.92 C 127.03 309.86 127.60 305.75 127.49 301.61 Z" fill="#103159" opacity="1.00" stroke="#103159" stroke-width="0.25"/>
<path d="M 286.35 297.93 C 286.61 298.23 287.14 298.83 287.40 299.14 C 292.38 306.14 295.62 314.25 300.46 321.36 C 303.50 325.67 305.40 330.91 309.64 334.27 C 311.28 335.65 312.92 337.04 314.45 338.55 C 313.87 345.64 314.34 352.77 314.75 359.86 L 312.96 359.84 C 312.68 352.95 312.23 346.06 312.49 339.17 C 308.87 336.27 304.70 333.77 302.27 329.69 C 296.93 320.35 290.54 311.43 287.48 300.98 C 288.00 306.24 287.47 311.52 287.76 316.79 C 288.02 321.55 288.61 326.30 288.71 331.08 C 288.93 333.91 285.04 336.24 286.98 339.03 C 292.16 349.17 297.42 359.29 302.78 369.33 C 303.03 376.51 302.33 383.70 301.41 390.81 C 301.18 390.60 300.73 390.18 300.51 389.97 C 300.51 387.73 300.66 385.49 300.86 383.27 C 301.05 377.95 303.08 371.97 299.91 367.16 C 296.35 361.34 292.91 355.43 289.89 349.31 C 288.33 346.07 286.51 342.97 284.45 340.04 C 280.58 346.56 275.25 352.02 270.03 357.45 L 267.80 357.96 C 268.68 356.50 269.59 355.06 270.50 353.62 C 276.24 347.55 281.94 341.22 285.60 333.64 C 286.86 331.30 286.70 328.58 286.62 326.03 C 286.32 320.24 285.92 314.45 285.26 308.69 C 282.34 315.29 280.42 322.27 277.86 329.01 C 275.41 336.55 272.33 343.88 270.13 351.50 C 269.18 353.13 268.17 354.73 267.19 356.35 C 267.27 353.93 267.43 351.51 267.14 349.10 C 262.69 345.66 258.26 342.20 253.75 338.84 C 248.24 353.85 242.98 369.04 235.15 383.04 C 240.91 388.42 247.78 392.39 253.77 397.50 C 256.82 395.40 260.34 393.50 261.94 389.98 C 265.66 382.36 269.32 374.68 272.18 366.69 C 277.67 374.46 282.28 382.81 287.06 391.03 C 288.88 394.62 291.42 398.12 291.50 402.30 C 289.86 399.82 288.53 397.15 287.14 394.52 C 285.83 392.12 284.36 389.81 282.93 387.49 C 279.39 381.94 276.47 376.02 272.84 370.54 C 269.60 378.08 266.17 385.54 262.87 393.06 C 261.75 394.96 264.34 395.95 265.41 397.03 C 271.44 401.59 277.54 406.07 283.76 410.38 C 287.40 412.78 291.23 414.91 294.71 417.57 C 290.12 417.53 286.62 413.84 282.79 411.75 C 275.85 406.60 268.37 402.00 262.61 395.46 C 261.19 400.62 257.07 407.02 261.14 411.90 C 261.49 412.36 262.19 413.27 262.54 413.73 C 267.16 419.56 272.49 424.77 277.36 430.39 C 274.74 430.81 272.42 429.14 269.82 429.27 C 243.61 429.01 217.40 429.44 191.19 429.59 C 191.41 429.16 191.83 428.32 192.05 427.90 C 201.75 425.56 211.01 421.82 220.43 418.59 C 223.97 417.41 227.30 415.69 230.39 413.61 C 231.19 403.41 232.79 393.30 233.66 383.11 C 234.02 380.68 235.49 378.61 236.51 376.43 C 243.15 363.59 247.59 349.80 252.97 336.42 C 258.25 340.22 263.48 344.10 268.85 347.78 C 274.99 331.28 280.45 314.52 286.35 297.93 Z" fill="#0e2a54" opacity="1.00" stroke="#0e2a54" stroke-width="0.25"/>
<path d="M 287.48 300.98 C 290.54 311.43 296.93 320.35 302.27 329.69 C 304.70 333.77 308.87 336.27 312.49 339.17 C 312.23 346.06 312.68 352.95 312.96 359.84 L 314.75 359.86 L 315.93 359.88 C 315.63 359.90 315.02 359.94 314.72 359.97 L 313.16 360.02 C 313.39 362.28 313.63 364.55 313.86 366.82 C 313.25 368.01 312.59 369.17 311.94 370.33 C 310.67 367.76 309.72 365.04 309.44 362.18 C 306.40 363.70 304.34 366.39 302.78 369.33 C 297.42 359.29 292.16 349.17 286.98 339.03 C 285.04 336.24 288.93 333.91 288.71 331.08 C 288.61 326.30 288.02 321.55 287.76 316.79 C 287.47 311.52 288.00 306.24 287.48 300.98 Z" fill="#f4fafd" opacity="1.00" stroke="#f4fafd" stroke-width="0.25"/>
<path d="M 127.49 301.61 C 127.60 305.75 127.03 309.86 126.31 313.92 C 124.53 324.14 124.03 334.51 122.81 344.79 C 122.43 347.74 122.30 350.77 123.07 353.68 C 123.17 354.13 123.37 355.05 123.47 355.51 C 117.57 357.38 111.64 359.65 105.37 359.63 C 106.79 351.32 109.61 343.34 111.22 335.07 C 112.16 329.57 116.28 325.50 118.65 320.63 C 121.77 314.38 125.01 308.15 127.49 301.61 Z" fill="#4fa5d5" opacity="1.00" stroke="#4fa5d5" stroke-width="0.25"/>
<path d="M 165.57 329.54 C 169.73 320.51 172.88 310.94 178.49 302.64 C 178.24 305.65 178.01 308.90 179.42 311.68 C 180.92 314.13 183.06 316.20 183.96 318.99 C 184.63 317.95 185.30 316.90 185.98 315.87 C 186.68 317.44 187.38 319.02 188.09 320.60 C 184.83 328.60 181.71 336.66 179.15 344.92 C 176.44 347.63 174.26 350.81 172.37 354.14 C 170.68 352.92 168.94 351.77 167.08 350.86 C 165.87 346.66 165.14 342.34 163.80 338.17 C 164.73 337.96 165.66 337.77 166.59 337.58 C 166.26 337.16 165.59 336.33 165.26 335.92 C 165.76 334.60 166.26 333.29 166.77 331.97 C 166.47 331.37 165.87 330.15 165.57 329.54 Z" fill="#78bee5" opacity="1.00" stroke="#78bee5" stroke-width="0.25"/>
<path d="M 123.07 353.68 C 126.53 338.31 127.19 322.49 129.26 306.91 C 130.44 309.80 132.19 312.41 134.02 314.93 C 134.70 314.32 135.39 313.72 136.08 313.13 C 136.80 314.16 137.53 315.20 138.26 316.24 C 135.88 328.43 132.85 340.49 130.62 352.72 C 128.27 353.74 125.88 354.65 123.47 355.51 C 123.37 355.05 123.17 354.13 123.07 353.68 Z" fill="#63b0dc" opacity="1.00" stroke="#63b0dc" stroke-width="0.25"/>
<path d="M 277.86 329.01 C 280.42 322.27 282.34 315.29 285.26 308.69 C 285.92 314.45 286.32 320.24 286.62 326.03 C 286.70 328.58 286.86 331.30 285.60 333.64 C 281.94 341.22 276.24 347.55 270.50 353.62 C 270.41 353.09 270.22 352.03 270.13 351.50 C 272.33 343.88 275.41 336.55 277.86 329.01 Z" fill="#6bb7dd" opacity="1.00" stroke="#6bb7dd" stroke-width="0.25"/>
<path d="M 192.49 315.18 C 197.78 317.95 204.35 316.91 209.08 313.48 C 209.34 314.35 209.59 315.24 209.84 316.13 C 211.16 325.82 211.79 335.61 212.16 345.38 C 211.28 348.78 210.60 352.23 210.33 355.74 C 209.56 355.46 208.80 355.19 208.05 354.92 C 204.86 355.83 201.43 356.04 198.42 357.44 C 196.85 360.06 195.48 362.91 192.68 364.46 C 189.11 358.64 185.12 353.08 181.78 347.13 C 180.13 343.90 182.33 340.35 183.31 337.24 C 186.33 329.87 189.14 322.41 192.49 315.18 Z" fill="#c7e7fa" opacity="1.00" stroke="#c7e7fa" stroke-width="0.25"/>
<path d="M 161.30 313.59 C 162.04 317.74 163.52 321.71 165.12 325.60 C 163.98 328.85 162.65 332.05 160.74 334.93 C 160.49 327.82 160.43 320.66 161.30 313.59 Z" fill="#5baddb" opacity="1.00" stroke="#5baddb" stroke-width="0.25"/>
<path d="M 158.51 345.87 C 158.59 339.66 163.51 335.11 165.57 329.54 C 165.87 330.15 166.47 331.37 166.77 331.97 C 166.26 333.29 165.76 334.60 165.26 335.92 C 165.59 336.33 166.26 337.16 166.59 337.58 C 165.66 337.77 164.73 337.96 163.80 338.17 C 165.14 342.34 165.87 346.66 167.08 350.86 C 168.94 351.77 170.68 352.92 172.37 354.14 C 167.47 362.41 162.48 370.71 156.21 378.03 C 156.20 367.27 157.90 356.60 158.51 345.87 Z" fill="#6fb7df" opacity="1.00" stroke="#6fb7df" stroke-width="0.25"/>
<path d="M 235.15 383.04 C 242.98 369.04 248.24 353.85 253.75 338.84 C 258.26 342.20 262.69 345.66 267.14 349.10 C 264.80 352.05 264.96 356.10 266.92 359.22 C 268.27 359.61 269.05 358.09 270.03 357.45 C 275.25 352.02 280.58 346.56 284.45 340.04 C 286.51 342.97 288.33 346.07 289.89 349.31 C 288.66 347.82 287.41 346.31 285.79 345.25 C 284.33 344.94 283.30 346.45 282.26 347.22 C 279.13 350.41 275.85 353.49 273.02 356.97 C 270.68 359.63 270.68 363.61 272.18 366.69 C 269.32 374.68 265.66 382.36 261.94 389.98 C 260.34 393.50 256.82 395.40 253.77 397.50 C 247.78 392.39 240.91 388.42 235.15 383.04 Z" fill="#98d0ef" opacity="1.00" stroke="#98d0ef" stroke-width="0.25"/>
<path d="M 282.26 347.22 C 283.30 346.45 284.33 344.94 285.79 345.25 C 287.41 346.31 288.66 347.82 289.89 349.31 C 292.91 355.43 296.35 361.34 299.91 367.16 C 303.08 371.97 301.05 377.95 300.86 383.27 C 300.47 382.73 299.70 381.65 299.31 381.11 C 299.08 382.86 298.86 384.61 298.64 386.38 C 294.63 387.53 290.73 389.04 287.06 391.03 C 282.28 382.81 277.67 374.46 272.18 366.69 C 270.68 363.61 270.68 359.63 273.02 356.97 C 275.85 353.49 279.13 350.41 282.26 347.22 Z" fill="#c5e8fa" opacity="1.00" stroke="#c5e8fa" stroke-width="0.25"/>
<path d="M 210.33 355.74 C 210.60 352.23 211.28 348.78 212.16 345.38 C 212.81 352.72 212.39 360.14 213.68 367.41 C 214.88 363.26 214.28 358.89 214.38 354.63 C 215.04 358.79 215.39 362.98 215.56 367.18 C 215.92 363.43 216.12 359.67 216.22 355.91 C 217.43 358.08 218.60 360.27 219.75 362.47 C 220.46 362.56 221.19 362.65 221.91 362.75 C 222.67 367.15 222.57 371.62 222.01 376.03 C 221.36 379.97 223.72 383.66 223.08 387.60 C 223.90 390.35 224.19 393.20 223.28 395.97 C 222.41 395.19 221.55 394.42 220.70 393.65 C 218.80 395.95 216.15 396.72 213.31 396.00 C 206.05 385.74 199.45 375.05 192.68 364.46 C 195.48 362.91 196.85 360.06 198.42 357.44 C 201.43 356.04 204.86 355.83 208.05 354.92 C 208.80 355.19 209.56 355.46 210.33 355.74 Z" fill="#dcf0fc" opacity="1.00" stroke="#dcf0fc" stroke-width="0.25"/>
<path d="M 177.24 349.15 C 178.22 346.95 179.87 349.39 180.58 350.47 C 185.20 357.50 190.06 364.40 194.24 371.70 C 195.05 372.90 195.95 374.03 196.70 375.27 C 197.62 376.25 197.50 377.79 198.49 378.73 L 199.35 378.62 C 199.40 380.18 199.23 382.02 201.42 381.92 C 201.37 382.26 201.26 382.92 201.20 383.25 C 200.91 384.92 200.56 386.58 200.08 388.21 C 199.96 388.56 199.72 389.25 199.61 389.60 C 193.17 385.93 186.80 381.98 181.48 376.76 C 174.03 378.09 166.41 377.84 158.89 377.45 C 166.24 368.88 171.87 359.03 177.24 349.15 Z" fill="#97d3f0" opacity="1.00" stroke="#97d3f0" stroke-width="0.25"/>
<path d="M 267.14 349.10 C 267.43 351.51 267.27 353.93 267.19 356.35 C 268.17 354.73 269.18 353.13 270.13 351.50 C 270.22 352.03 270.41 353.09 270.50 353.62 C 269.59 355.06 268.68 356.50 267.80 357.96 L 270.03 357.45 C 269.05 358.09 268.27 359.61 266.92 359.22 C 264.96 356.10 264.80 352.05 267.14 349.10 Z" fill="#3d78aa" opacity="1.00" stroke="#3d78aa" stroke-width="0.25"/>
<path d="M 313.16 360.02 L 314.72 359.97 C 315.83 369.41 317.41 378.81 319.72 388.04 C 327.04 395.57 336.01 401.37 344.32 407.76 C 353.08 413.94 361.15 421.01 369.94 427.15 C 371.16 427.87 371.72 429.18 372.26 430.44 C 371.77 430.28 370.77 429.95 370.28 429.79 C 360.29 424.05 351.83 416.12 342.60 409.30 C 338.04 406.02 333.95 402.02 328.89 399.49 L 328.37 399.21 C 325.33 396.72 322.72 393.70 319.34 391.65 C 311.76 401.32 302.86 410.03 296.77 420.80 C 294.16 424.37 292.70 428.77 289.43 431.83 C 289.53 431.52 289.73 430.92 289.83 430.61 C 291.25 426.32 293.75 422.51 295.53 418.37 C 299.11 412.77 303.50 407.76 307.72 402.65 C 311.36 398.11 315.29 393.79 318.58 388.98 C 316.28 381.77 315.04 374.28 313.86 366.82 C 313.63 364.55 313.39 362.28 313.16 360.02 Z" fill="#0d275b" opacity="1.00" stroke="#0d275b" stroke-width="0.25"/>
<path d="M 302.78 369.33 C 304.34 366.39 306.40 363.70 309.44 362.18 C 309.72 365.04 310.67 367.76 311.94 370.33 C 312.59 369.17 313.25 368.01 313.86 366.82 C 315.04 374.28 316.28 381.77 318.58 388.98 C 315.29 393.79 311.36 398.11 307.72 402.65 C 306.02 400.29 306.93 397.77 308.36 395.58 C 305.94 394.14 303.54 392.65 301.41 390.81 C 302.33 383.70 303.03 376.51 302.78 369.33 Z" fill="#ebf8fd" opacity="1.00" stroke="#ebf8fd" stroke-width="0.25"/>
<path d="M 92.10 363.21 C 95.59 363.36 99.07 363.49 102.56 363.68 C 101.45 371.29 100.98 379.02 98.93 386.45 C 94.54 381.16 91.28 375.01 88.04 368.98 C 89.35 367.02 90.70 365.10 92.10 363.21 Z" fill="#459fd7" opacity="1.00" stroke="#459fd7" stroke-width="0.25"/>
<path d="M 72.74 379.69 C 76.63 375.37 82.71 373.73 87.22 370.07 C 90.01 376.36 94.32 381.83 97.24 388.04 C 96.50 392.26 93.53 395.78 91.59 399.56 C 86.74 408.31 80.64 416.24 74.77 424.31 C 62.71 423.56 50.62 423.72 38.57 422.96 C 46.63 420.71 55.08 420.18 63.19 418.18 C 67.18 405.57 68.66 392.27 72.74 379.69 Z" fill="#459dcd" opacity="1.00" stroke="#459dcd" stroke-width="0.25"/>
<path d="M 262.87 393.06 C 266.17 385.54 269.60 378.08 272.84 370.54 C 276.47 376.02 279.39 381.94 282.93 387.49 C 282.56 388.61 282.20 389.73 281.84 390.86 C 276.08 391.85 270.30 393.76 265.41 397.03 C 264.34 395.95 261.75 394.96 262.87 393.06 Z" fill="#b7e0f6" opacity="1.00" stroke="#b7e0f6" stroke-width="0.25"/>
<path d="M 299.31 381.11 C 299.70 381.65 300.47 382.73 300.86 383.27 C 300.66 385.49 300.51 387.73 300.51 389.97 C 300.73 390.18 301.18 390.60 301.41 390.81 C 303.54 392.65 305.94 394.14 308.36 395.58 C 306.93 397.77 306.02 400.29 307.72 402.65 C 303.50 407.76 299.11 412.77 295.53 418.37 C 295.62 418.17 295.80 417.77 295.89 417.58 L 294.71 417.57 C 291.23 414.91 287.40 412.78 283.76 410.38 C 283.98 409.80 284.43 408.65 284.65 408.07 C 283.65 407.27 282.64 406.46 281.64 405.67 C 284.07 402.27 286.10 398.58 287.14 394.52 C 288.53 397.15 289.86 399.82 291.50 402.30 C 291.42 398.12 288.88 394.62 287.06 391.03 C 290.73 389.04 294.63 387.53 298.64 386.38 C 298.86 384.61 299.08 382.86 299.31 381.11 Z" fill="#d9effb" opacity="1.00" stroke="#d9effb" stroke-width="0.25"/>
<path d="M 200.08 388.21 C 200.56 386.58 200.91 384.92 201.20 383.25 C 203.93 386.72 205.83 390.77 208.78 394.07 C 205.63 392.79 202.52 391.42 199.55 389.77 L 199.61 389.60 C 199.72 389.25 199.96 388.56 200.08 388.21 Z" fill="#7ac2eb" opacity="1.00" stroke="#7ac2eb" stroke-width="0.25"/>
<path d="M 235.40 385.73 C 240.93 390.24 247.09 393.90 252.62 398.40 C 245.93 403.12 239.84 408.68 232.73 412.80 C 233.31 403.75 234.44 394.75 235.40 385.73 Z" fill="#5baedc" opacity="1.00" stroke="#5baedc" stroke-width="0.25"/>
<path d="M 281.84 390.86 C 282.20 389.73 282.56 388.61 282.93 387.49 C 284.36 389.81 285.83 392.12 287.14 394.52 C 286.10 398.58 284.07 402.27 281.64 405.67 C 282.64 406.46 283.65 407.27 284.65 408.07 C 284.43 408.65 283.98 409.80 283.76 410.38 C 277.54 406.07 271.44 401.59 265.41 397.03 C 270.30 393.76 276.08 391.85 281.84 390.86 Z" fill="#c7e8f9" opacity="1.00" stroke="#c7e8f9" stroke-width="0.25"/>
<path d="M 421.17 404.55 C 425.34 400.50 429.53 396.46 433.34 392.06 C 433.83 398.90 438.76 404.23 439.97 410.80 C 434.64 414.63 428.34 416.80 422.74 420.19 C 419.53 418.43 416.27 416.76 412.89 415.37 C 415.47 411.64 418.04 407.86 421.17 404.55 Z" fill="#69b4dc" opacity="1.00" stroke="#69b4dc" stroke-width="0.25"/>
<path d="M 442.26 409.60 C 439.39 404.07 437.09 398.24 435.21 392.31 C 442.99 397.99 449.91 404.79 458.00 410.06 C 463.75 413.83 469.42 417.73 475.08 421.64 C 463.80 418.59 453.09 413.89 442.26 409.60 Z" fill="#fcfdfb" opacity="1.00" stroke="#fcfdfb" stroke-width="0.25"/>
<path d="M 235.99 412.85 C 244.83 408.07 251.96 400.71 260.76 395.92 C 259.81 399.75 258.53 403.48 257.23 407.20 C 256.26 407.98 255.29 408.78 254.32 409.57 C 256.00 409.51 257.71 409.77 258.67 411.31 C 263.13 416.70 267.36 422.30 271.99 427.56 C 247.85 426.55 223.66 427.90 199.51 427.68 C 212.00 423.66 225.03 420.37 235.99 412.85 Z" fill="#66b3dd" opacity="1.00" stroke="#66b3dd" stroke-width="0.25"/>
<path d="M 423.20 397.39 C 423.70 397.15 424.70 396.68 425.21 396.44 C 424.60 397.64 424.08 398.88 423.51 400.11 C 421.53 400.70 421.63 402.95 421.17 404.55 C 418.04 407.86 415.47 411.64 412.89 415.37 C 409.94 414.15 406.99 412.96 404.06 411.71 C 410.19 406.63 416.49 401.69 423.20 397.39 Z" fill="#56a9d7" opacity="1.00" stroke="#56a9d7" stroke-width="0.25"/>
<path d="M 261.14 411.90 C 257.07 407.02 261.19 400.62 262.61 395.46 C 268.37 402.00 275.85 406.60 282.79 411.75 C 279.34 413.86 276.05 411.48 272.72 410.53 C 269.21 411.14 265.96 412.76 262.54 413.73 C 262.19 413.27 261.49 412.36 261.14 411.90 Z" fill="#d9eefa" opacity="1.00" stroke="#d9eefa" stroke-width="0.25"/>
<path d="M 328.89 399.49 C 333.95 402.02 338.04 406.02 342.60 409.30 C 351.83 416.12 360.29 424.05 370.28 429.79 C 367.98 429.72 365.60 429.61 363.61 428.36 C 353.40 423.48 345.66 415.03 337.13 407.84 C 334.42 405.02 330.69 403.07 328.89 399.49 Z" fill="#89c4de" opacity="1.00" stroke="#89c4de" stroke-width="0.25"/>
<path d="M 262.54 413.73 C 265.96 412.76 269.21 411.14 272.72 410.53 C 276.05 411.48 279.34 413.86 282.79 411.75 C 286.62 413.84 290.12 417.53 294.71 417.57 L 295.89 417.58 C 295.80 417.77 295.62 418.17 295.53 418.37 C 293.75 422.51 291.25 426.32 289.83 430.61 C 285.79 432.45 281.44 431.55 277.36 430.39 C 272.49 424.77 267.16 419.56 262.54 413.73 Z" fill="#e7f6fd" opacity="1.00" stroke="#e7f6fd" stroke-width="0.25"/>
</svg>